<svg id="Layer_1" data-name="Layer 1" xmlns="http://www.w3.org/2000/svg" viewBox="0 0 365.43 379.87"><defs><style>.cls-1,.cls-3{fill:#ffbf3c;}.cls-1,.cls-4,.cls-5{fill-rule:evenodd;}.cls-2,.cls-4{fill:#231f20;}</style></defs><title>404_icon</title><path class="cls-1" d="M287.76,213.65l.2-.2.22-.22a25.17,25.17,0,0,1,34.9,0l.13.14.11.1.19.2c.12.11.23.22.34.34L481.07,377.88a26.52,26.52,0,0,1,0,36.49L323.84,578.28a3.51,3.51,0,0,1-.34.33l-.19.21-.22.21a25.16,25.16,0,0,1-34.92,0c-.26-.24-.5-.49-.75-.75L130.2,414.38a26.52,26.52,0,0,1,0-36.49L287.43,214l.33-.33Z" transform="translate(-122.92 -206.19)"/><path class="cls-2" d="M136.26,383.28,293.5,219.38h0l.5-.53a17.37,17.37,0,0,1,24.11,0h0l.51.52h0L475.88,383.27a18.73,18.73,0,0,1,0,25.7L318.65,572.88h0l-.51.53a17.38,17.38,0,0,1-24.12,0l-.52-.52L136.27,409a18.73,18.73,0,0,1,0-25.7Z" transform="translate(-122.92 -206.19)"/><path class="cls-3" d="M300.17,225.8,142.93,389.71a9.44,9.44,0,0,0,0,12.85L300.16,566.44l.27.27a8.08,8.08,0,0,0,11.28,0l.27-.25v0l157.23-163.9a9.42,9.42,0,0,0,0-12.85L312,225.81v0a2.92,2.92,0,0,0-.24-.23l0,0a8.08,8.08,0,0,0-11.28,0c-.23.23-.2.18-.27.25v0Z" transform="translate(-122.92 -206.19)"/><path class="cls-4" d="M246.19,392.76a14.61,14.61,0,1,1-14.6,14.61,14.61,14.61,0,0,1,14.6-14.61Zm130.07,56.43a1.78,1.78,0,1,1-1.08-3.39c.12,0,40.21-12.21,35.08-66a1.78,1.78,0,0,1,3.55-.34c5.4,56.71-37.43,69.72-37.55,69.76Zm-9.42-101.26a1.78,1.78,0,1,1,2-3c.17.11,59.66,38.51,1.37,101.12a1.78,1.78,0,0,1-2.61-2.43c55.4-59.5-.57-95.62-.73-95.72ZM333,452a1.78,1.78,0,0,1,2.26-2.75l21.05,17.37a1.78,1.78,0,0,1-1.2,3.15h0l-20.27-.94L339,486a1.79,1.79,0,0,1-2.7,1.92h0l-19.53-12.7-12.2,19.51a1.79,1.79,0,0,1-2.46.58,1.86,1.86,0,0,1-.63-.68l-10-18.14L273.14,491a1.78,1.78,0,0,1-2.5-.3,1.74,1.74,0,0,1-.38-1h0l-1-22.66-19.55,3.82a1.8,1.8,0,0,1-2.09-1.41,1.78,1.78,0,0,1,.59-1.7l14.14-13.61a1.78,1.78,0,1,1,2.47,2.57L255,466.17l15.65-3.06h0l.27,0a1.79,1.79,0,0,1,1.85,1.71l.91,21.26,17.16-13.55a1.48,1.48,0,0,1,.35-.25,1.78,1.78,0,0,1,2.42.7l9.58,17.35,11.55-18.48h0l0,0a1.78,1.78,0,0,1,2.47-.52l17.29,11.24-3.67-15.06a2.09,2.09,0,0,1-.06-.56,1.79,1.79,0,0,1,1.86-1.7l17.3.81L333,452ZM187.67,430.65A6.42,6.42,0,0,1,190.08,418l69.67,13.44.09-.22,9.92-22.67-17.29-39a6.43,6.43,0,1,1,11.76-5.18L282.65,406a6.39,6.39,0,0,1-.15,5.49l-2.83,6.47,24.88,9.28V358.55a6.43,6.43,0,0,1,12.86,0v74.8l17.84-24.86a6.45,6.45,0,0,1,1.95-1.78l42.52-26.25a6.41,6.41,0,1,1,6.73,10.91L344.91,417l-31.17,43.44a6.41,6.41,0,0,1-7.78,2.47l-45.19-18.18-73.1-14.09Z" transform="translate(-122.92 -206.19)"/><path class="cls-5" d="M326.27,307.29h-3.91l2.37-2.45c1.69-1.74.09-3.12-1.65-1.32-1.22,1.26-2.43,2.52-3.65,3.77H310l3.71-3.82-.87-.85c0-.41,0-.81,0-1.22l-5.33-.08,6.67-6.67,5.25.08c2.65,0,2.61-2.06-.08-2.1l-3.1-.06,2.31-2.3c2-2,.53-3.51-1.49-1.49l-2.31,2.31c0-1.14,0-2.28,0-3.41,0-2.43-2.15-2.28-2.11.23l.09,5.25L306,299.83l-.09-5.33-1.21,0-.85-.87-3.83,3.7v-9.43l3.62-3.5c1.91-1.85.65-3.56-1.16-1.8L300.05,285V281.4c0-2.59-2.1-2.37-2.1.33V285l-2.23-2.16c-1.86-1.79-3.47-.42-1.7,1.29l3.93,3.8v9.43l-3.83-3.7-.85.87-1.22,0c0,1.78-.05,3.55-.08,5.33l-6.67-6.67.09-5.25c0-2.51-2.07-2.66-2.11-.24,0,1.14,0,2.28,0,3.42l-2.31-2.31c-1.91-1.91-3.55-.58-1.72,1.26l2.54,2.53-3.1.06c-2.69,0-2.73,2.15-.08,2.1l5.25-.09,6.67,6.68-5.33.08c0,.41,0,.81,0,1.22l-.87.85,3.71,3.82h-9.44l-3.19-3.3c-2.13-2.19-4-1.11-1.95,1l2.21,2.28h-3.59c-2.44,0-2.44,2.11,0,2.11h3.59l-2.16,2.23c-1.79,1.86-.42,3.47,1.29,1.7l3.8-3.93H288c-1.24,1.28-2.48,2.55-3.71,3.83l.87.85c0,.4,0,.81,0,1.21l5.33.09-6.67,6.67-5.69-.09c-2,0-2.05,2.07-.1,2.1l3.72.06-2.54,2.54c-1.63,1.63-.25,3.23,1.26,1.72.92-.92,1.84-1.85,2.77-2.77l.06,3.72c0,1.89,2.13,1.88,2.11.11q-.06-2.94-.1-5.9,3.33-3.33,6.67-6.67c0,1.77.06,3.55.08,5.33l1.22,0,.85.87,3.83-3.71v9.44l-3.77,3.65c-1.8,1.74-.43,3.34,1.31,1.65l2.46-2.37v3.59c0,2.44,2.1,2.44,2.1,0v-3.59l2.68,2.59c1.43,1.38,2.84-.18,1.33-1.64l-4-3.88v-9.44l3.83,3.71.85-.87,1.21,0,.09-5.33,6.67,6.67-.09,5.25c0,2.38,2.07,2.66,2.1.54l.06-3.72,2.31,2.31c1.91,1.9,3.55.57,1.72-1.26l-2.54-2.54,3.72-.06c1.95,0,1.89-2.14-.1-2.1l-5.69.09-6.67-6.67,5.33-.09c0-.4,0-.81,0-1.21l.87-.85c-1.23-1.28-2.47-2.55-3.71-3.83h9.44l3.95,4.09c1.29,1.33,3.06.12,1.57-1.41-.86-.9-1.73-1.79-2.59-2.68h3.91c2,0,2-2.11,0-2.11Zm-15.51-3.81-3.7,3.81h-5.52l3.91-3.9,5.31.09Zm-6.89-6.89.09,5.31-3.91,3.91v-5.52l3.82-3.7Zm-9.74,0,3.82,3.71v5.52L294,301.9l.09-5.32Zm-6.89,6.89,5.31-.08,3.91,3.9h-5.52q-1.86-1.91-3.7-3.82Zm0,9.75c1.23-1.27,2.46-2.55,3.7-3.82h5.52l-3.91,3.91-5.31-.09Zm6.89,6.89-.09-5.32,3.91-3.9v5.52l-3.82,3.7Zm9.74,0-3.82-3.7v-5.52l3.91,3.9-.09,5.32Zm6.89-6.89-5.31.09-3.91-3.91h5.52c1.24,1.27,2.47,2.55,3.7,3.82Z" transform="translate(-122.92 -206.19)"/><path class="cls-5" d="M372.33,324.41H370l1.4-1.45c1-1,.05-1.83-1-.77l-2.15,2.22h-5.55l2.18-2.26-.51-.49c0-.24,0-.48,0-.72l-3.14-.05,3.93-3.93,3.09.06c1.55,0,1.53-1.22-.05-1.24l-1.82,0,1.35-1.36c1.2-1.19.32-2.07-.87-.88-.45.46-.91.91-1.36,1.36l0-2c0-1.42-1.26-1.33-1.24.14,0,1,0,2.06,0,3.09L360.42,320c0-1,0-2.09-.05-3.13h-.72l-.5-.51-2.25,2.18V313L359,311c1.13-1.09.38-2.1-.69-1.06l-1.44,1.39v-2.11c0-1.52-1.24-1.39-1.24.19v1.92L354.35,310c-1.09-1.05-2-.24-1,.76l2.31,2.24v5.55l-2.25-2.18-.5.51h-.71l-.05,3.13-3.93-3.92c0-1,0-2.06,0-3.09,0-1.47-1.21-1.56-1.23-.14,0,.67,0,1.34,0,2l-1.35-1.36c-1.13-1.12-2.09-.34-1,.74l1.5,1.5-1.83,0c-1.57,0-1.6,1.26,0,1.24l3.09-.06,3.92,3.93-3.13.05c0,.24,0,.48,0,.72l-.52.49,2.19,2.26h-5.56l-1.87-2c-1.25-1.29-2.36-.65-1.15.6l1.3,1.35h-2.11c-1.44,0-1.44,1.23,0,1.23h2.11L341.27,327c-1,1.09-.25,2,.76,1l2.23-2.32h5.56l-2.19,2.26.52.49c0,.24,0,.48,0,.72l3.13.05-3.92,3.93L344,333c-1.17,0-1.21,1.22-.06,1.24l2.19,0-1.5,1.5c-1,1-.14,1.89.75,1l1.62-1.63c0,.73,0,1.46,0,2.19,0,1.11,1.26,1.1,1.24.06l-.06-3.47,3.93-3.92c0,1,0,2.09.05,3.13h.71l.5.51,2.25-2.18V337l-2.22,2.15c-1.05,1-.25,2,.78,1l1.44-1.39v2.11c0,1.43,1.24,1.43,1.24,0v-2.11l1.58,1.52c.84.81,1.67-.11.78-1L356.9,337v-5.55l2.25,2.18.5-.51h.72c0-1,0-2.09.05-3.13,1.31,1.3,2.61,2.61,3.92,3.92,0,1,0,2.06,0,3.09,0,1.4,1.22,1.56,1.24.32l0-2.19c.45.45.91.9,1.36,1.36,1.12,1.12,2.09.34,1-.74l-1.49-1.5,2.19,0c1.14,0,1.11-1.26-.07-1.24l-3.34.06-3.93-3.93,3.14-.05c0-.24,0-.48,0-.72l.51-.49-2.18-2.26h5.55l2.33,2.41c.75.78,1.79.07.92-.83L370,325.64h2.31c1.18,0,1.18-1.23,0-1.23Zm-9.13-2.25L361,324.41h-3.25l2.29-2.3,3.13.05Zm-4.05-4.05c0,1,0,2.08.05,3.12l-2.3,2.3v-3.25l2.25-2.17Zm-5.73,0,2.24,2.18v3.25l-2.29-2.3c0-1,0-2.08.05-3.13Zm-4.06,4.06,3.13-.05,2.3,2.3h-3.25l-2.18-2.25Zm0,5.73,2.18-2.25h3.25l-2.3,2.3-3.13-.05Zm4.06,4.05c0-1,0-2.08-.05-3.12l2.29-2.3v3.25l-2.24,2.17Zm5.73,0-2.25-2.17v-3.25l2.3,2.3c0,1,0,2.08-.05,3.12Zm4.05-4.05-3.13.05-2.29-2.3H361l2.17,2.25Z" transform="translate(-122.92 -206.19)"/><path class="cls-5" d="M414.8,355.23h-1.46l.89-.91c.63-.65,0-1.17-.62-.5l-1.36,1.41h-3.53c.47-.47.93-1,1.39-1.43l-.33-.31c0-.15,0-.31,0-.46l-2,0,2.49-2.49,2,0c1,0,1-.77,0-.78l-1.16,0,.87-.86c.75-.76.19-1.32-.56-.56l-.86.86c0-.42,0-.85,0-1.27,0-.91-.8-.85-.79.08l0,2-2.49,2.5,0-2h-.45l-.32-.32L405,351.52V348l1.35-1.31c.72-.69.25-1.33-.43-.67l-.92.88v-1.34c0-1-.79-.88-.79.13v1.21l-.83-.8c-.69-.67-1.29-.16-.63.48.49.47,1,.94,1.46,1.42v3.52l-1.43-1.38-.31.32H402l0,2L399.5,350l0-2c0-.93-.77-1-.78-.08,0,.42,0,.85,0,1.27-.29-.29-.58-.57-.86-.86-.72-.71-1.33-.22-.65.47l.95.95-1.16,0c-1,0-1,.8,0,.78l1.95,0,2.5,2.49-2,0v.46l-.32.31,1.38,1.43H397L395.8,354c-.8-.82-1.5-.42-.73.38l.82.85h-1.34c-.91,0-.91.79,0,.79h1.34c-.26.28-.53.56-.8.83-.67.7-.16,1.3.48.64L397,356h3.52l-1.38,1.43.32.32v.45l2,0-2.5,2.49-2.12,0c-.74,0-.77.77,0,.78l1.39,0-.95.94c-.61.61-.09,1.21.47.65l1-1c0,.47,0,.93,0,1.39,0,.71.8.7.79,0s0-1.47,0-2.2l2.49-2.49,0,2h.46l.31.33,1.43-1.39v3.53l-1.4,1.36c-.68.65-.16,1.25.49.62l.91-.89v1.34c0,.91.79.91.79,0v-1.34l1,1c.53.51,1.06-.07.5-.62l-1.5-1.44v-3.53l1.43,1.39.32-.33h.45l0-2,2.49,2.49,0,2c0,.89.77,1,.78.2l0-1.39.86.86c.71.72,1.33.22.64-.47l-.95-.94,1.39,0c.73,0,.71-.79,0-.78l-2.12,0-2.49-2.49,2,0c0-.15,0-.3,0-.45l.33-.32L408.72,356h3.53l1.47,1.53c.48.49,1.14,0,.59-.53-.33-.33-.65-.67-1-1h1.46c.75,0,.75-.79,0-.79ZM409,353.81l-1.38,1.42h-2.06l1.45-1.45,2,0Zm-2.57-2.58,0,2L405,354.68v-2.06l1.43-1.39Zm-3.64,0,1.42,1.39v2.06l-1.45-1.46,0-2Zm-2.58,2.58,2,0,1.46,1.45h-2.06l-1.39-1.42Zm0,3.64,1.39-1.43h2.06l-1.46,1.46-2,0ZM402.8,360l0-2,1.45-1.45v2.06L402.8,360Zm3.64,0L405,358.64v-2.06l1.46,1.45,0,2Zm2.57-2.57-2,0L405.57,356h2.06l1.38,1.43Z" transform="translate(-122.92 -206.19)"/></svg>