<svg xmlns="http://www.w3.org/2000/svg" id="Layer_1" data-name="Layer 1" viewBox="0 0 495.48 224.14">
    <defs>
        <style>
            .cls-1{fill:#edefef;}
        </style>
    </defs>
    <title>
        gaia_footer_logo
    </title>
    <path d="M171.44,464.34a65.57,65.57,0,0,1-25.63,5.35q-20.4,0-36.7-7.09a78.55,78.55,0,0,1-27.5-19.54,86.31,86.31,0,0,1-17.17-29.24,107.33,107.33,0,0,1-6-36.21,111,111,0,0,1,6-36.95,88.71,88.71,0,0,1,17.17-29.74A78.56,78.56,0,0,1,109.11,291q16.29-7.22,36.7-7.21a86.19,86.19,0,0,1,26.5,4.1A75.15,75.15,0,0,1,195.46,300a65.23,65.23,0,0,1,25.26,46.54H183.39q-3.48-14.94-13.44-22.4t-24.14-7.46q-13.19,0-22.39,5.1a42.23,42.23,0,0,0-14.93,13.68A59.93,59.93,0,0,0,100.15,355a97.33,97.33,0,0,0-2.61,22.64,90.56,90.56,0,0,0,2.61,21.78,58.59,58.59,0,0,0,8.34,19A42.58,42.58,0,0,0,123.42,432q9.2,5.1,22.39,5.1,19.41,0,30-9.83t12.32-28.49H148.8V369.65h74.66v96.06H198.57l-4-20.16Q184.14,459,171.44,464.34" class="cls-1" transform="translate(-58.46 -283.8)"/>
    <path d="M365.09,288h35.34v29.11H365.09Zm35.34,177.68H365.09V337.05h35.34Z" class="cls-1" transform="translate(-58.46 -283.8)"/>
    <path d="M414.78,376.62q.75-12.45,6.23-20.66a42.43,42.43,0,0,1,13.93-13.19,60.68,60.68,0,0,1,19-7.08,108.2,108.2,0,0,1,21.27-2.12,144.43,144.43,0,0,1,19.66,1.37,60.23,60.23,0,0,1,18.17,5.35,35.74,35.74,0,0,1,13.44,11.07q5.22,7.09,5.22,18.79v66.94a133,133,0,0,0,1,16.67q1,8,3.48,11.95H500.39a48.44,48.44,0,0,1-1.62-6.1,50.8,50.8,0,0,1-.87-6.35A46,46,0,0,1,478,465.46a80,80,0,0,1-23.39,3.48,62.92,62.92,0,0,1-17.17-2.24,39.29,39.29,0,0,1-13.94-7,32.46,32.46,0,0,1-9.33-11.95,40.36,40.36,0,0,1-3.36-17.17q0-11,3.86-18a32.24,32.24,0,0,1,9.95-11.32,44.65,44.65,0,0,1,13.94-6.35,149.05,149.05,0,0,1,15.8-3.36q8-1.24,15.68-2a95.66,95.66,0,0,0,13.69-2.24,23.86,23.86,0,0,0,9.45-4.36q3.48-2.85,3.24-8.33a18.84,18.84,0,0,0-1.87-9.09,13.68,13.68,0,0,0-5-5.22,19.5,19.5,0,0,0-7.21-2.49,59.83,59.83,0,0,0-8.84-.62q-10.44,0-16.42,4.48t-7,14.93Zm81.63,26.13a15.92,15.92,0,0,1-5.6,3.11,55.49,55.49,0,0,1-7.22,1.86q-3.85.75-8.09,1.25T467,410.21a66.68,66.68,0,0,0-7.84,2,23.76,23.76,0,0,0-6.72,3.36,16,16,0,0,0-4.6,5.36,17.2,17.2,0,0,0-1.74,8.21,16.64,16.64,0,0,0,1.74,8,13.3,13.3,0,0,0,4.73,5.1,19.66,19.66,0,0,0,7,2.61,44.22,44.22,0,0,0,8.21.75q10.45,0,16.18-3.48a23.33,23.33,0,0,0,8.46-8.34,26.66,26.66,0,0,0,3.35-9.83,66.69,66.69,0,0,0,.63-8Z" class="cls-1" transform="translate(-58.46 -283.8)"/>
    <path d="M354,453.76a133.12,133.12,0,0,1-1-16.67V370.15q0-11.7-5.22-18.79a35.74,35.74,0,0,0-13.44-11.07,60.23,60.23,0,0,0-18.17-5.35,144.51,144.51,0,0,0-19.65-1.37,108.23,108.23,0,0,0-21.28,2.12,60.68,60.68,0,0,0-19,7.08A42.33,42.33,0,0,0,242.22,356q-5.49,8.22-6.23,20.66h35.34q1-10.46,7-14.93t16.42-4.48a59.83,59.83,0,0,1,8.84.62,19.74,19.74,0,0,1,7.21,2.49,13.68,13.68,0,0,1,5,5.22,18.87,18.87,0,0,1,1.87,9.09q.24,5.47-3.24,8.33a23.72,23.72,0,0,1-9.45,4.36,95.66,95.66,0,0,1-13.69,2.24q-7.73.75-15.68,2a149.05,149.05,0,0,0-15.8,3.36,44.75,44.75,0,0,0-13.94,6.34,32.36,32.36,0,0,0-9.95,11.33q-3.87,7.1-3.86,18a40.36,40.36,0,0,0,3.36,17.17,32.46,32.46,0,0,0,9.33,11.95,39.29,39.29,0,0,0,13.94,7,62.92,62.92,0,0,0,17.17,2.24c1.07,0,2.12,0,3.18-.06a53.32,53.32,0,0,1-.65-20.47C282,430,297.8,421,297.8,421c-12.92,6.12-19.3,14.82-22.46,22a15.87,15.87,0,0,1-1.52-.83,13.3,13.3,0,0,1-4.73-5.1,16.61,16.61,0,0,1-1.74-8,17.22,17.22,0,0,1,1.74-8.21,15.71,15.71,0,0,1,4.61-5.35,23.33,23.33,0,0,1,6.71-3.37,66.18,66.18,0,0,1,7.84-2c2.82-.5,5.64-.9,8.46-1.24s5.52-.75,8.09-1.25a55.49,55.49,0,0,0,7.22-1.86,15.92,15.92,0,0,0,5.6-3.11v13.19a66.69,66.69,0,0,1-.63,8,26.5,26.5,0,0,1-3.36,9.83,23.18,23.18,0,0,1-8.46,8.34q-5.71,3.48-16.17,3.48a20.61,20.61,0,0,1-3.94-.09c-1.44,5.17-2.42,12.84-.13,23.14,5.51-.48,8.93-1.52,14.27-3.14a45.92,45.92,0,0,0,19.91-12.2,52.73,52.73,0,0,0,.87,6.35,48.44,48.44,0,0,0,1.62,6.1h35.83q-2.49-4-3.48-11.95" class="cls-1" transform="translate(-58.46 -283.8)"/>
    <path d="M546.61,317.92a11.87,11.87,0,0,1,3.85,2.57,12.51,12.51,0,0,1,2.56,13.4,11.68,11.68,0,0,1-6.41,6.39,12.83,12.83,0,0,1-9.59,0,11.67,11.67,0,0,1-3.84-2.55,12.1,12.1,0,0,1-2.57-3.84,12.31,12.31,0,0,1,2.57-13.4,11.72,11.72,0,0,1,3.84-2.57,12.83,12.83,0,0,1,9.59,0m-8.89,1.61a10,10,0,0,0-5.37,5.51,11.19,11.19,0,0,0,0,8.16,10.26,10.26,0,0,0,16.77,3.29,10.3,10.3,0,0,0,2.15-3.29,10.93,10.93,0,0,0,0-8.16,10.09,10.09,0,0,0-2.15-3.29,9.94,9.94,0,0,0-3.24-2.22,10.16,10.16,0,0,0-4.06-.82,10.28,10.28,0,0,0-4.1.82m-.3,16.6v-14h5.37a5.09,5.09,0,0,1,3.48,1,3.74,3.74,0,0,1,1.09,2.89,4.07,4.07,0,0,1-.28,1.59,3.25,3.25,0,0,1-.76,1.16,3.72,3.72,0,0,1-1.13.75,5.89,5.89,0,0,1-1.35.41l4.17,6.23h-2l-4-6.23h-2.9v6.23Zm5.55-7.75a4.26,4.26,0,0,0,1.36-.28,2,2,0,0,0,.94-.73,2.33,2.33,0,0,0,.36-1.38,2.26,2.26,0,0,0-.28-1.21,2,2,0,0,0-.75-.73,3,3,0,0,0-1.06-.38,7,7,0,0,0-1.23-.1h-3.17v4.86h2.28c.53,0,1,0,1.55-.05" class="cls-1" transform="translate(-58.46 -283.8)"/>
    <path d="M197.62,504.32V487.73h10.6V490h-8.09v4.85H207v2.24h-6.9v5h8.09v2.26Z" class="cls-1" transform="translate(-58.46 -283.8)"/>
    <path d="M230.88,504.32l-7.66-11.67v11.67H220.7V487.73H223l7.66,11.65V487.73h2.52v16.59Z" class="cls-1" transform="translate(-58.46 -283.8)"/>
    <path d="M252.19,490v14.33h-2.51V490h-4.57v-2.26h11.65V490Z" class="cls-1" transform="translate(-58.46 -283.8)"/>
    <path d="M268.66,504.32V487.73h10.6V490h-8.08v4.85h6.89v2.24h-6.89v5h8.08v2.26Z" class="cls-1" transform="translate(-58.46 -283.8)"/>
    <path d="M300.93,504.32l-3.5-7h-3.14v7h-2.52V487.73h6.43c3.15,0,5.15,2,5.15,4.85A4.35,4.35,0,0,1,300,497l3.82,7.34ZM298,490h-3.72v5.2H298a2.61,2.61,0,1,0,0-5.2Z" class="cls-1" transform="translate(-58.46 -283.8)"/>
    <path d="M322.33,497.8h-3.77v6.52H316V487.73h6.29c3.24,0,5.32,2.15,5.32,5S325.57,497.8,322.33,497.8Zm-.14-7.81h-3.63v5.53h3.63a2.77,2.77,0,1,0,0-5.53Z" class="cls-1" transform="translate(-58.46 -283.8)"/>
    <path d="M348.89,504.32l-3.5-7h-3.14v7h-2.52V487.73h6.43c3.15,0,5.15,2,5.15,4.85A4.34,4.34,0,0,1,348,497l3.82,7.34ZM346,490h-3.73v5.2H346a2.61,2.61,0,1,0,0-5.2Z" class="cls-1" transform="translate(-58.46 -283.8)"/>
    <path d="M364.05,504.32V487.73h2.51v16.59Z" class="cls-1" transform="translate(-58.46 -283.8)"/>
    <path d="M384.36,504.46a7.5,7.5,0,0,1-5.87-2.19l1.68-1.65a5.47,5.47,0,0,0,4.24,1.58c2.17,0,3.42-.93,3.42-2.54a2.22,2.22,0,0,0-.65-1.72,2.87,2.87,0,0,0-1.82-.7l-1.95-.28a5.66,5.66,0,0,1-3.15-1.33,4.12,4.12,0,0,1-1.21-3.17c0-2.88,2.1-4.87,5.54-4.87a6.9,6.9,0,0,1,5.15,1.89l-1.6,1.59a4.9,4.9,0,0,0-3.62-1.29c-1.95,0-3,1.12-3,2.59a2,2,0,0,0,.63,1.54,3.71,3.71,0,0,0,1.86.77l1.89.28a5.43,5.43,0,0,1,3.09,1.23,4.34,4.34,0,0,1,1.36,3.4C390.33,502.64,387.83,504.46,384.36,504.46Z" class="cls-1" transform="translate(-58.46 -283.8)"/>
    <path d="M402.74,504.32V487.73h10.6V490h-8.08v4.85h6.89v2.24h-6.89v5h8.08v2.26Z" class="cls-1" transform="translate(-58.46 -283.8)"/>
    <path d="M430.25,504.46a7.5,7.5,0,0,1-5.87-2.19l1.68-1.65a5.47,5.47,0,0,0,4.24,1.58c2.16,0,3.42-.93,3.42-2.54a2.22,2.22,0,0,0-.65-1.72,2.87,2.87,0,0,0-1.82-.7l-2-.28a5.65,5.65,0,0,1-3.14-1.33,4.12,4.12,0,0,1-1.21-3.17c0-2.88,2.09-4.87,5.54-4.87a6.9,6.9,0,0,1,5.15,1.89L434,491.07a4.86,4.86,0,0,0-3.61-1.29c-2,0-3,1.12-3,2.59a2,2,0,0,0,.63,1.54,3.78,3.78,0,0,0,1.87.77l1.88.28a5.43,5.43,0,0,1,3.1,1.23,4.34,4.34,0,0,1,1.36,3.4C436.22,502.64,433.72,504.46,430.25,504.46Z" class="cls-1" transform="translate(-58.46 -283.8)"/>
    <path d="M448.44,507.94v-6.32h2.7v4.1Z" class="cls-1" transform="translate(-58.46 -283.8)"/>
    <path d="M470,504.32V487.73h2.51v16.59Z" class="cls-1" transform="translate(-58.46 -283.8)"/>
    <path d="M494.21,504.32l-7.66-11.67v11.67H484V487.73h2.31L494,499.38V487.73h2.51v16.59Z" class="cls-1" transform="translate(-58.46 -283.8)"/>
    <path d="M513.41,504.46a6,6,0,0,1-4.36-1.77c-1.63-1.63-1.61-3.47-1.61-6.66s0-5,1.61-6.67a6,6,0,0,1,4.36-1.77,5.72,5.72,0,0,1,5.92,5.11h-2.57a3.42,3.42,0,0,0-5.8-1.84c-.81.88-1,1.84-1,5.17s.19,4.29,1,5.17a3.31,3.31,0,0,0,2.45,1,3.35,3.35,0,0,0,3.38-2.84h2.54A5.73,5.73,0,0,1,513.41,504.46Z" class="cls-1" transform="translate(-58.46 -283.8)"/>
    <path d="M529.06,504.32v-2.84h2.84v2.84Z" class="cls-1" transform="translate(-58.46 -283.8)"/>
</svg>
